# xmcd
#
# Track frame offsets: 
#        150
#        11372
#        29542
#        42453
#        57002
#        71602
#        98762
#        116930
#        133073
#        144029
#        159033
#        168958
#        186580
#        202461
#
# Disc length: 3098 seconds
#
# Revision: 0
# Processed by: cddbd v1.5.2PL0 Copyright (c) Steve Scherf et al.
# Submitted via: ExactAudioCopy v0.99pb4
#
DISCID=c50c180e
DTITLE=The Blind Lemons - Southside Gumbo
DYEAR=2007
DGENRE=Blues
TTITLE0=Whirlaway
TTITLE1=Brand New Lovin'
TTITLE2=I Wish You Would
TTITLE3=Water On The Flower
TTITLE4=Love Don't Love Nobody
TTITLE5=Black Night
TTITLE6=See Me In The Evening
TTITLE7=Mama Tell The Truth
TTITLE8=Blue, Blue, Blue
TTITLE9=Let Me Pump Some Gas (In Your Tank)
TTITLE10=Blue Monday
TTITLE11=New Orleans Piano Madman
TTITLE12=I Wanna Make Love To You
TTITLE13=Big Chief
EXTD=
EXTT0=
EXTT1=
EXTT2=
EXTT3=
EXTT4=
EXTT5=
EXTT6=
EXTT7=
EXTT8=
EXTT9=
EXTT10=
EXTT11=
EXTT12=
EXTT13=
PLAYORDER=
